<mxfile host="app.diagrams.net" agent="Mozilla/5.0 (Windows NT 10.0; Win64; x64) AppleWebKit/537.36 (KHTML, like Gecko) Chrome/134.0.0.0 Safari/537.36" version="26.2.14">
  <diagram name="Page-1" id="a6IaXev5Jbf4Zx6BKyVR">
    <mxGraphModel dx="3390" dy="2158" grid="1" gridSize="10" guides="1" tooltips="1" connect="1" arrows="1" fold="1" page="0" pageScale="1" pageWidth="850" pageHeight="1100" background="#ffffff" math="0" shadow="0">
      <root>
        <mxCell id="0" />
        <mxCell id="1" parent="0" />
        <mxCell id="rYVZWEPrfZzp95ZC9z8C-159" style="edgeStyle=orthogonalEdgeStyle;rounded=0;orthogonalLoop=1;jettySize=auto;html=1;entryX=1;entryY=0.5;entryDx=0;entryDy=0;labelBackgroundColor=none;fontColor=default;" edge="1" parent="1" source="rYVZWEPrfZzp95ZC9z8C-1" target="rYVZWEPrfZzp95ZC9z8C-3">
          <mxGeometry relative="1" as="geometry">
            <Array as="points">
              <mxPoint x="280" y="265" />
            </Array>
          </mxGeometry>
        </mxCell>
        <mxCell id="rYVZWEPrfZzp95ZC9z8C-1" value="&lt;i&gt;R&lt;/i&gt; = {r1, r2, r3, ...}" style="shape=parallelogram;html=1;strokeWidth=2;perimeter=parallelogramPerimeter;whiteSpace=wrap;rounded=1;arcSize=12;size=0.23;labelBackgroundColor=none;" vertex="1" parent="1">
          <mxGeometry x="196.75" y="30" width="160" height="40" as="geometry" />
        </mxCell>
        <mxCell id="rYVZWEPrfZzp95ZC9z8C-153" style="edgeStyle=orthogonalEdgeStyle;rounded=0;orthogonalLoop=1;jettySize=auto;html=1;entryX=0;entryY=0.5;entryDx=0;entryDy=0;labelBackgroundColor=none;fontColor=default;" edge="1" parent="1" source="rYVZWEPrfZzp95ZC9z8C-2" target="rYVZWEPrfZzp95ZC9z8C-152">
          <mxGeometry relative="1" as="geometry" />
        </mxCell>
        <mxCell id="rYVZWEPrfZzp95ZC9z8C-2" value="&lt;i&gt;S&lt;/i&gt; = {S1, S2, S3, ...}" style="shape=parallelogram;html=1;strokeWidth=2;perimeter=parallelogramPerimeter;whiteSpace=wrap;rounded=1;arcSize=12;size=0.23;labelBackgroundColor=none;" vertex="1" parent="1">
          <mxGeometry x="-686" y="245" width="160" height="40" as="geometry" />
        </mxCell>
        <mxCell id="rYVZWEPrfZzp95ZC9z8C-38" style="edgeStyle=orthogonalEdgeStyle;rounded=0;orthogonalLoop=1;jettySize=auto;html=1;entryX=0.5;entryY=1;entryDx=0;entryDy=0;labelBackgroundColor=none;fontColor=default;" edge="1" parent="1" source="rYVZWEPrfZzp95ZC9z8C-3" target="rYVZWEPrfZzp95ZC9z8C-36">
          <mxGeometry relative="1" as="geometry" />
        </mxCell>
        <mxCell id="rYVZWEPrfZzp95ZC9z8C-3" value="Tokenize R" style="rounded=1;whiteSpace=wrap;html=1;absoluteArcSize=1;arcSize=14;strokeWidth=2;labelBackgroundColor=none;" vertex="1" parent="1">
          <mxGeometry x="27.5" y="240" width="155" height="50" as="geometry" />
        </mxCell>
        <mxCell id="rYVZWEPrfZzp95ZC9z8C-131" style="edgeStyle=orthogonalEdgeStyle;rounded=0;orthogonalLoop=1;jettySize=auto;html=1;entryX=1;entryY=0.5;entryDx=0;entryDy=0;labelBackgroundColor=none;fontColor=default;" edge="1" parent="1" source="rYVZWEPrfZzp95ZC9z8C-6" target="rYVZWEPrfZzp95ZC9z8C-140">
          <mxGeometry relative="1" as="geometry">
            <mxPoint x="29.40000000000009" y="-149.99999999999977" as="targetPoint" />
          </mxGeometry>
        </mxCell>
        <mxCell id="rYVZWEPrfZzp95ZC9z8C-132" style="edgeStyle=orthogonalEdgeStyle;rounded=0;orthogonalLoop=1;jettySize=auto;html=1;entryX=0;entryY=0.5;entryDx=0;entryDy=0;labelBackgroundColor=none;fontColor=default;" edge="1" parent="1" source="rYVZWEPrfZzp95ZC9z8C-6" target="rYVZWEPrfZzp95ZC9z8C-136">
          <mxGeometry relative="1" as="geometry">
            <mxPoint x="198.29999999999973" y="-149.99999999999977" as="targetPoint" />
          </mxGeometry>
        </mxCell>
        <mxCell id="rYVZWEPrfZzp95ZC9z8C-6" value="OR" style="rhombus;whiteSpace=wrap;html=1;labelBackgroundColor=none;" vertex="1" parent="1">
          <mxGeometry x="100" y="-170" width="40" height="40" as="geometry" />
        </mxCell>
        <mxCell id="rYVZWEPrfZzp95ZC9z8C-167" style="edgeStyle=orthogonalEdgeStyle;rounded=0;orthogonalLoop=1;jettySize=auto;html=1;labelBackgroundColor=none;fontColor=default;" edge="1" parent="1" source="rYVZWEPrfZzp95ZC9z8C-14" target="rYVZWEPrfZzp95ZC9z8C-164">
          <mxGeometry relative="1" as="geometry" />
        </mxCell>
        <mxCell id="rYVZWEPrfZzp95ZC9z8C-14" value="relatedness&amp;nbsp;&lt;div&gt;threshold &lt;span class=&quot;katex&quot;&gt;&lt;span style=&quot;height: 0.6944em;&quot; class=&quot;strut&quot;&gt;&lt;/span&gt;&lt;span style=&quot;margin-right: 0.0379em;&quot; class=&quot;mord mathnormal&quot;&gt;δ&lt;/span&gt;&lt;/span&gt;&lt;/div&gt;" style="shape=parallelogram;html=1;strokeWidth=2;perimeter=parallelogramPerimeter;whiteSpace=wrap;rounded=1;arcSize=12;size=0.23;labelBackgroundColor=none;" vertex="1" parent="1">
          <mxGeometry x="-511" y="675" width="200" height="40" as="geometry" />
        </mxCell>
        <mxCell id="rYVZWEPrfZzp95ZC9z8C-155" style="edgeStyle=orthogonalEdgeStyle;rounded=0;orthogonalLoop=1;jettySize=auto;html=1;entryX=0;entryY=0.5;entryDx=0;entryDy=0;labelBackgroundColor=none;fontColor=default;" edge="1" parent="1" source="rYVZWEPrfZzp95ZC9z8C-22" target="rYVZWEPrfZzp95ZC9z8C-26">
          <mxGeometry relative="1" as="geometry" />
        </mxCell>
        <mxCell id="rYVZWEPrfZzp95ZC9z8C-156" style="edgeStyle=orthogonalEdgeStyle;rounded=0;orthogonalLoop=1;jettySize=auto;html=1;labelBackgroundColor=none;fontColor=default;" edge="1" parent="1" source="rYVZWEPrfZzp95ZC9z8C-22" target="rYVZWEPrfZzp95ZC9z8C-24">
          <mxGeometry relative="1" as="geometry" />
        </mxCell>
        <mxCell id="rYVZWEPrfZzp95ZC9z8C-22" value="OR" style="rhombus;whiteSpace=wrap;html=1;labelBackgroundColor=none;" vertex="1" parent="1">
          <mxGeometry x="100" y="-370" width="40" height="40" as="geometry" />
        </mxCell>
        <mxCell id="rYVZWEPrfZzp95ZC9z8C-178" style="edgeStyle=orthogonalEdgeStyle;rounded=0;orthogonalLoop=1;jettySize=auto;html=1;entryX=0.5;entryY=0;entryDx=0;entryDy=0;labelBackgroundColor=none;fontColor=default;" edge="1" parent="1" source="rYVZWEPrfZzp95ZC9z8C-24" target="rYVZWEPrfZzp95ZC9z8C-152">
          <mxGeometry relative="1" as="geometry">
            <mxPoint x="-430" y="140" as="targetPoint" />
            <Array as="points">
              <mxPoint x="-390" y="-350" />
              <mxPoint x="-390" y="40" />
              <mxPoint x="-410" y="40" />
              <mxPoint x="-410" y="70" />
              <mxPoint x="-394" y="70" />
            </Array>
          </mxGeometry>
        </mxCell>
        <mxCell id="rYVZWEPrfZzp95ZC9z8C-180" style="edgeStyle=orthogonalEdgeStyle;rounded=0;orthogonalLoop=1;jettySize=auto;html=1;entryX=0.5;entryY=0;entryDx=0;entryDy=0;labelBackgroundColor=none;fontColor=default;" edge="1" parent="1" source="rYVZWEPrfZzp95ZC9z8C-24" target="rYVZWEPrfZzp95ZC9z8C-6">
          <mxGeometry relative="1" as="geometry">
            <Array as="points">
              <mxPoint x="-60" y="-220" />
              <mxPoint x="120" y="-220" />
            </Array>
          </mxGeometry>
        </mxCell>
        <mxCell id="rYVZWEPrfZzp95ZC9z8C-24" value="Jaccard&lt;div&gt;(whitespace words)&lt;/div&gt;" style="shape=parallelogram;html=1;strokeWidth=2;perimeter=parallelogramPerimeter;whiteSpace=wrap;rounded=1;arcSize=12;size=0.23;labelBackgroundColor=none;" vertex="1" parent="1">
          <mxGeometry x="-144.5" y="-370" width="180" height="40" as="geometry" />
        </mxCell>
        <mxCell id="rYVZWEPrfZzp95ZC9z8C-179" style="edgeStyle=orthogonalEdgeStyle;rounded=0;orthogonalLoop=1;jettySize=auto;html=1;entryX=0.5;entryY=0;entryDx=0;entryDy=0;labelBackgroundColor=none;fontColor=default;" edge="1" parent="1" source="rYVZWEPrfZzp95ZC9z8C-26" target="rYVZWEPrfZzp95ZC9z8C-152">
          <mxGeometry relative="1" as="geometry">
            <mxPoint x="-420" y="190" as="targetPoint" />
            <Array as="points">
              <mxPoint x="282" y="-400" />
              <mxPoint x="-390" y="-400" />
              <mxPoint x="-390" y="40" />
              <mxPoint x="-410" y="40" />
              <mxPoint x="-410" y="70" />
              <mxPoint x="-394" y="70" />
            </Array>
          </mxGeometry>
        </mxCell>
        <mxCell id="rYVZWEPrfZzp95ZC9z8C-181" style="edgeStyle=orthogonalEdgeStyle;rounded=0;orthogonalLoop=1;jettySize=auto;html=1;entryX=0.5;entryY=0;entryDx=0;entryDy=0;labelBackgroundColor=none;fontColor=default;" edge="1" parent="1" source="rYVZWEPrfZzp95ZC9z8C-26" target="rYVZWEPrfZzp95ZC9z8C-6">
          <mxGeometry relative="1" as="geometry">
            <Array as="points">
              <mxPoint x="282" y="-220" />
              <mxPoint x="120" y="-220" />
            </Array>
          </mxGeometry>
        </mxCell>
        <mxCell id="rYVZWEPrfZzp95ZC9z8C-26" value=" Edit Similarity&lt;div&gt;(q-gram)&lt;/div&gt;" style="shape=parallelogram;html=1;strokeWidth=2;perimeter=parallelogramPerimeter;whiteSpace=wrap;rounded=1;arcSize=12;size=0.23;labelBackgroundColor=none;" vertex="1" parent="1">
          <mxGeometry x="196.75" y="-370" width="170" height="40" as="geometry" />
        </mxCell>
        <mxCell id="rYVZWEPrfZzp95ZC9z8C-28" value="similarity&amp;nbsp;&lt;span style=&quot;background-color: transparent; color: light-dark(rgb(0, 0, 0), rgb(255, 255, 255));&quot;&gt;threshold&amp;nbsp;&lt;/span&gt;&lt;span style=&quot;background-color: transparent; color: light-dark(rgb(0, 0, 0), rgb(255, 255, 255));&quot; class=&quot;katex&quot;&gt;&lt;span style=&quot;height: 0.4306em;&quot; class=&quot;strut&quot;&gt;&lt;/span&gt;&lt;span style=&quot;margin-right: 0.0037em;&quot; class=&quot;mord mathnormal&quot;&gt;α&lt;/span&gt;&lt;/span&gt;&lt;div&gt;&lt;span style=&quot;background-color: transparent; color: light-dark(rgb(0, 0, 0), rgb(255, 255, 255));&quot; class=&quot;katex&quot;&gt;&lt;span style=&quot;margin-right: 0.0037em;&quot; class=&quot;mord mathnormal&quot;&gt;baseline = 0&lt;/span&gt;&lt;/span&gt;&lt;/div&gt;" style="shape=parallelogram;html=1;strokeWidth=2;perimeter=parallelogramPerimeter;whiteSpace=wrap;rounded=1;arcSize=12;size=0.23;labelBackgroundColor=none;" vertex="1" parent="1">
          <mxGeometry x="-291" y="-370" width="190" height="40" as="geometry" />
        </mxCell>
        <mxCell id="rYVZWEPrfZzp95ZC9z8C-40" style="edgeStyle=orthogonalEdgeStyle;rounded=0;orthogonalLoop=1;jettySize=auto;html=1;entryX=0.5;entryY=0;entryDx=0;entryDy=0;labelBackgroundColor=none;fontColor=default;" edge="1" parent="1" source="rYVZWEPrfZzp95ZC9z8C-36" target="rYVZWEPrfZzp95ZC9z8C-39">
          <mxGeometry relative="1" as="geometry" />
        </mxCell>
        <mxCell id="rYVZWEPrfZzp95ZC9z8C-168" style="edgeStyle=orthogonalEdgeStyle;rounded=0;orthogonalLoop=1;jettySize=auto;html=1;labelBackgroundColor=none;fontColor=default;" edge="1" parent="1" source="rYVZWEPrfZzp95ZC9z8C-36" target="rYVZWEPrfZzp95ZC9z8C-47">
          <mxGeometry relative="1" as="geometry" />
        </mxCell>
        <mxCell id="rYVZWEPrfZzp95ZC9z8C-36" value="R Tokens" style="shape=parallelogram;html=1;strokeWidth=2;perimeter=parallelogramPerimeter;whiteSpace=wrap;rounded=1;arcSize=12;size=0.23;direction=west;labelBackgroundColor=none;" vertex="1" parent="1">
          <mxGeometry x="22.5" y="340" width="165" height="40" as="geometry" />
        </mxCell>
        <mxCell id="rYVZWEPrfZzp95ZC9z8C-45" style="edgeStyle=orthogonalEdgeStyle;rounded=0;orthogonalLoop=1;jettySize=auto;html=1;labelBackgroundColor=none;fontColor=default;" edge="1" parent="1" source="rYVZWEPrfZzp95ZC9z8C-39" target="rYVZWEPrfZzp95ZC9z8C-44">
          <mxGeometry relative="1" as="geometry" />
        </mxCell>
        <mxCell id="rYVZWEPrfZzp95ZC9z8C-39" value="Inverted Index Creation" style="rounded=1;whiteSpace=wrap;html=1;absoluteArcSize=1;arcSize=14;strokeWidth=2;labelBackgroundColor=none;" vertex="1" parent="1">
          <mxGeometry x="27.5" y="505" width="155" height="50" as="geometry" />
        </mxCell>
        <mxCell id="rYVZWEPrfZzp95ZC9z8C-69" style="edgeStyle=orthogonalEdgeStyle;rounded=0;orthogonalLoop=1;jettySize=auto;html=1;entryX=0;entryY=0;entryDx=0;entryDy=0;labelBackgroundColor=none;fontColor=default;" edge="1" parent="1" source="rYVZWEPrfZzp95ZC9z8C-44" target="rYVZWEPrfZzp95ZC9z8C-67">
          <mxGeometry relative="1" as="geometry" />
        </mxCell>
        <mxCell id="rYVZWEPrfZzp95ZC9z8C-44" value="Inverted Index" style="strokeWidth=2;html=1;shape=mxgraph.flowchart.database;whiteSpace=wrap;labelBackgroundColor=none;" vertex="1" parent="1">
          <mxGeometry x="320" y="500" width="90" height="60" as="geometry" />
        </mxCell>
        <mxCell id="rYVZWEPrfZzp95ZC9z8C-170" style="edgeStyle=orthogonalEdgeStyle;rounded=0;orthogonalLoop=1;jettySize=auto;html=1;entryX=1;entryY=0.5;entryDx=0;entryDy=0;labelBackgroundColor=none;fontColor=default;" edge="1" parent="1" source="rYVZWEPrfZzp95ZC9z8C-47" target="rYVZWEPrfZzp95ZC9z8C-169">
          <mxGeometry relative="1" as="geometry" />
        </mxCell>
        <mxCell id="rYVZWEPrfZzp95ZC9z8C-47" value="Signature Generation R&lt;div&gt;(weighted)&lt;/div&gt;" style="rounded=1;whiteSpace=wrap;html=1;absoluteArcSize=1;arcSize=14;strokeWidth=2;labelBackgroundColor=none;" vertex="1" parent="1">
          <mxGeometry x="280" y="335" width="155" height="50" as="geometry" />
        </mxCell>
        <mxCell id="rYVZWEPrfZzp95ZC9z8C-68" style="edgeStyle=orthogonalEdgeStyle;rounded=0;orthogonalLoop=1;jettySize=auto;html=1;entryX=0;entryY=0.5;entryDx=0;entryDy=0;labelBackgroundColor=none;fontColor=default;" edge="1" parent="1" source="rYVZWEPrfZzp95ZC9z8C-63" target="rYVZWEPrfZzp95ZC9z8C-67">
          <mxGeometry relative="1" as="geometry" />
        </mxCell>
        <mxCell id="rYVZWEPrfZzp95ZC9z8C-63" value="S Signatures" style="strokeWidth=2;html=1;shape=mxgraph.flowchart.database;whiteSpace=wrap;labelBackgroundColor=none;" vertex="1" parent="1">
          <mxGeometry x="320" y="665" width="90" height="60" as="geometry" />
        </mxCell>
        <mxCell id="rYVZWEPrfZzp95ZC9z8C-154" style="edgeStyle=orthogonalEdgeStyle;rounded=0;orthogonalLoop=1;jettySize=auto;html=1;labelBackgroundColor=none;fontColor=default;" edge="1" parent="1" source="rYVZWEPrfZzp95ZC9z8C-66" target="rYVZWEPrfZzp95ZC9z8C-22">
          <mxGeometry relative="1" as="geometry" />
        </mxCell>
        <mxCell id="rYVZWEPrfZzp95ZC9z8C-66" value="Start" style="strokeWidth=2;html=1;shape=mxgraph.flowchart.start_2;whiteSpace=wrap;labelBackgroundColor=none;" vertex="1" parent="1">
          <mxGeometry x="90" y="-530" width="60" height="60" as="geometry" />
        </mxCell>
        <mxCell id="rYVZWEPrfZzp95ZC9z8C-67" value="Candidate Selection" style="rounded=1;whiteSpace=wrap;html=1;absoluteArcSize=1;arcSize=14;strokeWidth=2;labelBackgroundColor=none;" vertex="1" parent="1">
          <mxGeometry x="555" y="670" width="155" height="50" as="geometry" />
        </mxCell>
        <mxCell id="rYVZWEPrfZzp95ZC9z8C-71" value="&lt;div&gt;&lt;br&gt;&lt;/div&gt;Candidates&lt;div&gt;&lt;br&gt;&lt;/div&gt;" style="strokeWidth=2;html=1;shape=mxgraph.flowchart.database;whiteSpace=wrap;labelBackgroundColor=none;" vertex="1" parent="1">
          <mxGeometry x="800" y="665" width="90" height="60" as="geometry" />
        </mxCell>
        <mxCell id="rYVZWEPrfZzp95ZC9z8C-72" style="edgeStyle=orthogonalEdgeStyle;rounded=0;orthogonalLoop=1;jettySize=auto;html=1;entryX=0;entryY=0.5;entryDx=0;entryDy=0;entryPerimeter=0;labelBackgroundColor=none;fontColor=default;" edge="1" parent="1" source="rYVZWEPrfZzp95ZC9z8C-67" target="rYVZWEPrfZzp95ZC9z8C-71">
          <mxGeometry relative="1" as="geometry" />
        </mxCell>
        <mxCell id="rYVZWEPrfZzp95ZC9z8C-103" style="edgeStyle=orthogonalEdgeStyle;rounded=0;orthogonalLoop=1;jettySize=auto;html=1;entryX=0;entryY=0.5;entryDx=0;entryDy=0;labelBackgroundColor=none;fontColor=default;" edge="1" parent="1" source="rYVZWEPrfZzp95ZC9z8C-73" target="rYVZWEPrfZzp95ZC9z8C-87">
          <mxGeometry relative="1" as="geometry" />
        </mxCell>
        <mxCell id="rYVZWEPrfZzp95ZC9z8C-73" value="Check Filter" style="rounded=1;whiteSpace=wrap;html=1;absoluteArcSize=1;arcSize=14;strokeWidth=2;labelBackgroundColor=none;" vertex="1" parent="1">
          <mxGeometry x="1110" y="670" width="155" height="50" as="geometry" />
        </mxCell>
        <mxCell id="rYVZWEPrfZzp95ZC9z8C-100" style="edgeStyle=orthogonalEdgeStyle;rounded=0;orthogonalLoop=1;jettySize=auto;html=1;entryX=0;entryY=0.5;entryDx=0;entryDy=0;labelBackgroundColor=none;fontColor=default;" edge="1" parent="1" source="rYVZWEPrfZzp95ZC9z8C-77" target="rYVZWEPrfZzp95ZC9z8C-73">
          <mxGeometry relative="1" as="geometry" />
        </mxCell>
        <mxCell id="rYVZWEPrfZzp95ZC9z8C-105" value="Yes" style="edgeLabel;html=1;align=center;verticalAlign=middle;resizable=0;points=[];labelBackgroundColor=none;" vertex="1" connectable="0" parent="rYVZWEPrfZzp95ZC9z8C-100">
          <mxGeometry x="-0.2471" relative="1" as="geometry">
            <mxPoint as="offset" />
          </mxGeometry>
        </mxCell>
        <mxCell id="rYVZWEPrfZzp95ZC9z8C-107" style="edgeStyle=orthogonalEdgeStyle;rounded=0;orthogonalLoop=1;jettySize=auto;html=1;entryX=0.5;entryY=0;entryDx=0;entryDy=0;labelBackgroundColor=none;fontColor=default;" edge="1" parent="1" source="rYVZWEPrfZzp95ZC9z8C-77" target="rYVZWEPrfZzp95ZC9z8C-106">
          <mxGeometry relative="1" as="geometry" />
        </mxCell>
        <mxCell id="rYVZWEPrfZzp95ZC9z8C-108" value="No" style="edgeLabel;html=1;align=center;verticalAlign=middle;resizable=0;points=[];labelBackgroundColor=none;" vertex="1" connectable="0" parent="rYVZWEPrfZzp95ZC9z8C-107">
          <mxGeometry x="-0.3013" y="-1" relative="1" as="geometry">
            <mxPoint as="offset" />
          </mxGeometry>
        </mxCell>
        <mxCell id="rYVZWEPrfZzp95ZC9z8C-77" value="Refinement" style="strokeWidth=2;html=1;shape=mxgraph.flowchart.decision;whiteSpace=wrap;labelBackgroundColor=none;" vertex="1" parent="1">
          <mxGeometry x="960" y="655" width="80" height="80" as="geometry" />
        </mxCell>
        <mxCell id="rYVZWEPrfZzp95ZC9z8C-109" style="edgeStyle=orthogonalEdgeStyle;rounded=0;orthogonalLoop=1;jettySize=auto;html=1;entryX=1;entryY=0.5;entryDx=0;entryDy=0;labelBackgroundColor=none;fontColor=default;" edge="1" parent="1" source="rYVZWEPrfZzp95ZC9z8C-87" target="rYVZWEPrfZzp95ZC9z8C-106">
          <mxGeometry relative="1" as="geometry">
            <Array as="points">
              <mxPoint x="1398" y="835" />
            </Array>
          </mxGeometry>
        </mxCell>
        <mxCell id="rYVZWEPrfZzp95ZC9z8C-87" value="NN Filter" style="rounded=1;whiteSpace=wrap;html=1;absoluteArcSize=1;arcSize=14;strokeWidth=2;labelBackgroundColor=none;" vertex="1" parent="1">
          <mxGeometry x="1320" y="670" width="155" height="50" as="geometry" />
        </mxCell>
        <mxCell id="rYVZWEPrfZzp95ZC9z8C-99" style="edgeStyle=orthogonalEdgeStyle;rounded=0;orthogonalLoop=1;jettySize=auto;html=1;entryX=0;entryY=0.5;entryDx=0;entryDy=0;entryPerimeter=0;labelBackgroundColor=none;fontColor=default;" edge="1" parent="1" source="rYVZWEPrfZzp95ZC9z8C-71" target="rYVZWEPrfZzp95ZC9z8C-77">
          <mxGeometry relative="1" as="geometry" />
        </mxCell>
        <mxCell id="rYVZWEPrfZzp95ZC9z8C-116" style="edgeStyle=orthogonalEdgeStyle;rounded=0;orthogonalLoop=1;jettySize=auto;html=1;entryX=0.5;entryY=0;entryDx=0;entryDy=0;labelBackgroundColor=none;fontColor=default;" edge="1" parent="1" source="rYVZWEPrfZzp95ZC9z8C-106" target="rYVZWEPrfZzp95ZC9z8C-115">
          <mxGeometry relative="1" as="geometry" />
        </mxCell>
        <mxCell id="rYVZWEPrfZzp95ZC9z8C-106" value="Verification" style="rounded=1;whiteSpace=wrap;html=1;absoluteArcSize=1;arcSize=14;strokeWidth=2;labelBackgroundColor=none;" vertex="1" parent="1">
          <mxGeometry x="922.5" y="810" width="155" height="50" as="geometry" />
        </mxCell>
        <mxCell id="rYVZWEPrfZzp95ZC9z8C-110" value="" style="endArrow=none;dashed=1;html=1;rounded=0;exitX=0.5;exitY=0;exitDx=0;exitDy=0;entryX=0.5;entryY=0;entryDx=0;entryDy=0;entryPerimeter=0;labelBackgroundColor=none;fontColor=default;" edge="1" parent="1" source="rYVZWEPrfZzp95ZC9z8C-87" target="rYVZWEPrfZzp95ZC9z8C-71">
          <mxGeometry width="50" height="50" relative="1" as="geometry">
            <mxPoint x="1350" y="620" as="sourcePoint" />
            <mxPoint x="1000" y="600" as="targetPoint" />
            <Array as="points">
              <mxPoint x="1398" y="600" />
              <mxPoint x="845" y="600" />
            </Array>
          </mxGeometry>
        </mxCell>
        <mxCell id="rYVZWEPrfZzp95ZC9z8C-114" value="update" style="edgeLabel;html=1;align=center;verticalAlign=middle;resizable=0;points=[];labelBackgroundColor=none;" vertex="1" connectable="0" parent="rYVZWEPrfZzp95ZC9z8C-110">
          <mxGeometry x="0.5022" y="-2" relative="1" as="geometry">
            <mxPoint as="offset" />
          </mxGeometry>
        </mxCell>
        <mxCell id="rYVZWEPrfZzp95ZC9z8C-113" value="" style="endArrow=none;dashed=1;html=1;rounded=0;exitX=0.5;exitY=0;exitDx=0;exitDy=0;labelBackgroundColor=none;fontColor=default;" edge="1" parent="1" source="rYVZWEPrfZzp95ZC9z8C-73">
          <mxGeometry width="50" height="50" relative="1" as="geometry">
            <mxPoint x="1180" y="670" as="sourcePoint" />
            <mxPoint x="1188" y="600" as="targetPoint" />
          </mxGeometry>
        </mxCell>
        <mxCell id="rYVZWEPrfZzp95ZC9z8C-118" style="edgeStyle=orthogonalEdgeStyle;rounded=0;orthogonalLoop=1;jettySize=auto;html=1;entryX=0;entryY=0.5;entryDx=0;entryDy=0;labelBackgroundColor=none;fontColor=default;" edge="1" parent="1" source="rYVZWEPrfZzp95ZC9z8C-115" target="rYVZWEPrfZzp95ZC9z8C-117">
          <mxGeometry relative="1" as="geometry" />
        </mxCell>
        <mxCell id="rYVZWEPrfZzp95ZC9z8C-121" value="Yes" style="edgeLabel;html=1;align=center;verticalAlign=middle;resizable=0;points=[];labelBackgroundColor=none;" vertex="1" connectable="0" parent="rYVZWEPrfZzp95ZC9z8C-118">
          <mxGeometry x="0.0133" y="-3" relative="1" as="geometry">
            <mxPoint as="offset" />
          </mxGeometry>
        </mxCell>
        <mxCell id="rYVZWEPrfZzp95ZC9z8C-122" style="edgeStyle=orthogonalEdgeStyle;rounded=0;orthogonalLoop=1;jettySize=auto;html=1;entryX=0.5;entryY=0;entryDx=0;entryDy=0;labelBackgroundColor=none;fontColor=default;" edge="1" parent="1" source="rYVZWEPrfZzp95ZC9z8C-115" target="rYVZWEPrfZzp95ZC9z8C-119">
          <mxGeometry relative="1" as="geometry" />
        </mxCell>
        <mxCell id="rYVZWEPrfZzp95ZC9z8C-123" value="No" style="edgeLabel;html=1;align=center;verticalAlign=middle;resizable=0;points=[];labelBackgroundColor=none;" vertex="1" connectable="0" parent="rYVZWEPrfZzp95ZC9z8C-122">
          <mxGeometry x="-0.2333" relative="1" as="geometry">
            <mxPoint as="offset" />
          </mxGeometry>
        </mxCell>
        <mxCell id="rYVZWEPrfZzp95ZC9z8C-115" value="use triangle optimization" style="rhombus;whiteSpace=wrap;html=1;labelBackgroundColor=none;" vertex="1" parent="1">
          <mxGeometry x="955" y="920" width="90" height="100" as="geometry" />
        </mxCell>
        <mxCell id="rYVZWEPrfZzp95ZC9z8C-124" style="edgeStyle=orthogonalEdgeStyle;rounded=0;orthogonalLoop=1;jettySize=auto;html=1;entryX=1;entryY=0.5;entryDx=0;entryDy=0;labelBackgroundColor=none;fontColor=default;" edge="1" parent="1" source="rYVZWEPrfZzp95ZC9z8C-117" target="rYVZWEPrfZzp95ZC9z8C-119">
          <mxGeometry relative="1" as="geometry">
            <Array as="points">
              <mxPoint x="1198" y="1095" />
            </Array>
          </mxGeometry>
        </mxCell>
        <mxCell id="rYVZWEPrfZzp95ZC9z8C-117" value="Triangle Optimization" style="rounded=1;whiteSpace=wrap;html=1;absoluteArcSize=1;arcSize=14;strokeWidth=2;labelBackgroundColor=none;" vertex="1" parent="1">
          <mxGeometry x="1120" y="945" width="155" height="50" as="geometry" />
        </mxCell>
        <mxCell id="rYVZWEPrfZzp95ZC9z8C-127" style="edgeStyle=orthogonalEdgeStyle;rounded=0;orthogonalLoop=1;jettySize=auto;html=1;labelBackgroundColor=none;fontColor=default;" edge="1" parent="1" source="rYVZWEPrfZzp95ZC9z8C-119" target="rYVZWEPrfZzp95ZC9z8C-126">
          <mxGeometry relative="1" as="geometry" />
        </mxCell>
        <mxCell id="rYVZWEPrfZzp95ZC9z8C-119" value="Create Bipartite Matching Graph" style="rounded=1;whiteSpace=wrap;html=1;absoluteArcSize=1;arcSize=14;strokeWidth=2;labelBackgroundColor=none;" vertex="1" parent="1">
          <mxGeometry x="931.25" y="1070" width="137.5" height="50" as="geometry" />
        </mxCell>
        <mxCell id="rYVZWEPrfZzp95ZC9z8C-120" value="" style="endArrow=none;dashed=1;html=1;dashPattern=1 3;strokeWidth=2;rounded=0;entryX=0.5;entryY=1;entryDx=0;entryDy=0;entryPerimeter=0;labelBackgroundColor=none;fontColor=default;" edge="1" parent="1" target="rYVZWEPrfZzp95ZC9z8C-71">
          <mxGeometry width="50" height="50" relative="1" as="geometry">
            <mxPoint x="930" y="1095" as="sourcePoint" />
            <mxPoint x="845" y="730" as="targetPoint" />
            <Array as="points">
              <mxPoint x="845" y="1095" />
            </Array>
          </mxGeometry>
        </mxCell>
        <mxCell id="rYVZWEPrfZzp95ZC9z8C-125" value="using" style="edgeLabel;html=1;align=center;verticalAlign=middle;resizable=0;points=[];labelBackgroundColor=none;" vertex="1" connectable="0" parent="rYVZWEPrfZzp95ZC9z8C-120">
          <mxGeometry x="-0.2193" y="1" relative="1" as="geometry">
            <mxPoint as="offset" />
          </mxGeometry>
        </mxCell>
        <mxCell id="rYVZWEPrfZzp95ZC9z8C-185" style="edgeStyle=orthogonalEdgeStyle;rounded=0;orthogonalLoop=1;jettySize=auto;html=1;labelBackgroundColor=none;fontColor=default;" edge="1" parent="1" source="rYVZWEPrfZzp95ZC9z8C-126" target="rYVZWEPrfZzp95ZC9z8C-182">
          <mxGeometry relative="1" as="geometry" />
        </mxCell>
        <mxCell id="rYVZWEPrfZzp95ZC9z8C-126" value="&lt;div&gt;&lt;br&gt;&lt;/div&gt;&lt;div&gt;Related SETS&lt;/div&gt;&lt;div&gt;(R,S)&lt;/div&gt;" style="strokeWidth=2;html=1;shape=mxgraph.flowchart.database;whiteSpace=wrap;labelBackgroundColor=none;" vertex="1" parent="1">
          <mxGeometry x="955" y="1160" width="90" height="60" as="geometry" />
        </mxCell>
        <mxCell id="rYVZWEPrfZzp95ZC9z8C-128" value="END" style="strokeWidth=2;html=1;shape=mxgraph.flowchart.terminator;whiteSpace=wrap;labelBackgroundColor=none;" vertex="1" parent="1">
          <mxGeometry x="965" y="1420" width="70" height="40" as="geometry" />
        </mxCell>
        <mxCell id="rYVZWEPrfZzp95ZC9z8C-138" style="edgeStyle=orthogonalEdgeStyle;rounded=0;orthogonalLoop=1;jettySize=auto;html=1;entryX=0.5;entryY=0;entryDx=0;entryDy=0;labelBackgroundColor=none;fontColor=default;" edge="1" parent="1" source="rYVZWEPrfZzp95ZC9z8C-136" target="rYVZWEPrfZzp95ZC9z8C-1">
          <mxGeometry relative="1" as="geometry" />
        </mxCell>
        <mxCell id="rYVZWEPrfZzp95ZC9z8C-136" value="RELATED SET&amp;nbsp;&lt;div&gt;SEARCH (target)&lt;/div&gt;" style="rounded=1;whiteSpace=wrap;html=1;absoluteArcSize=1;arcSize=14;strokeWidth=2;labelBackgroundColor=none;" vertex="1" parent="1">
          <mxGeometry x="199.25" y="-175" width="155" height="50" as="geometry" />
        </mxCell>
        <mxCell id="rYVZWEPrfZzp95ZC9z8C-143" style="edgeStyle=orthogonalEdgeStyle;rounded=0;orthogonalLoop=1;jettySize=auto;html=1;labelBackgroundColor=none;fontColor=default;" edge="1" parent="1" source="rYVZWEPrfZzp95ZC9z8C-139" target="rYVZWEPrfZzp95ZC9z8C-142">
          <mxGeometry relative="1" as="geometry" />
        </mxCell>
        <mxCell id="rYVZWEPrfZzp95ZC9z8C-144" value="x = 1" style="edgeLabel;html=1;align=center;verticalAlign=middle;resizable=0;points=[];labelBackgroundColor=none;" vertex="1" connectable="0" parent="rYVZWEPrfZzp95ZC9z8C-143">
          <mxGeometry x="-0.24" y="-1" relative="1" as="geometry">
            <mxPoint as="offset" />
          </mxGeometry>
        </mxCell>
        <mxCell id="rYVZWEPrfZzp95ZC9z8C-139" value="&lt;i&gt;R&lt;/i&gt; = {R1, R2, R3, ...}" style="shape=parallelogram;html=1;strokeWidth=2;perimeter=parallelogramPerimeter;whiteSpace=wrap;rounded=1;arcSize=12;size=0.23;labelBackgroundColor=none;" vertex="1" parent="1">
          <mxGeometry x="-115" y="-70" width="160" height="40" as="geometry" />
        </mxCell>
        <mxCell id="rYVZWEPrfZzp95ZC9z8C-141" style="edgeStyle=orthogonalEdgeStyle;rounded=0;orthogonalLoop=1;jettySize=auto;html=1;entryX=0.5;entryY=0;entryDx=0;entryDy=0;labelBackgroundColor=none;fontColor=default;" edge="1" parent="1" source="rYVZWEPrfZzp95ZC9z8C-140" target="rYVZWEPrfZzp95ZC9z8C-139">
          <mxGeometry relative="1" as="geometry" />
        </mxCell>
        <mxCell id="rYVZWEPrfZzp95ZC9z8C-140" value="RELATED SET&amp;nbsp;&lt;div&gt;DISCOVERY (general)&lt;/div&gt;" style="rounded=1;whiteSpace=wrap;html=1;absoluteArcSize=1;arcSize=14;strokeWidth=2;labelBackgroundColor=none;" vertex="1" parent="1">
          <mxGeometry x="-110" y="-175" width="150" height="50" as="geometry" />
        </mxCell>
        <mxCell id="rYVZWEPrfZzp95ZC9z8C-146" style="edgeStyle=orthogonalEdgeStyle;rounded=0;orthogonalLoop=1;jettySize=auto;html=1;labelBackgroundColor=none;fontColor=default;" edge="1" parent="1" source="rYVZWEPrfZzp95ZC9z8C-142" target="rYVZWEPrfZzp95ZC9z8C-145">
          <mxGeometry relative="1" as="geometry" />
        </mxCell>
        <mxCell id="rYVZWEPrfZzp95ZC9z8C-142" value="Take SET Rx" style="rounded=1;whiteSpace=wrap;html=1;absoluteArcSize=1;arcSize=14;strokeWidth=2;labelBackgroundColor=none;" vertex="1" parent="1">
          <mxGeometry x="-87.5" y="30" width="105" height="40" as="geometry" />
        </mxCell>
        <mxCell id="rYVZWEPrfZzp95ZC9z8C-160" style="edgeStyle=orthogonalEdgeStyle;rounded=0;orthogonalLoop=1;jettySize=auto;html=1;entryX=0;entryY=0.5;entryDx=0;entryDy=0;labelBackgroundColor=none;fontColor=default;" edge="1" parent="1" source="rYVZWEPrfZzp95ZC9z8C-145" target="rYVZWEPrfZzp95ZC9z8C-3">
          <mxGeometry relative="1" as="geometry" />
        </mxCell>
        <mxCell id="rYVZWEPrfZzp95ZC9z8C-145" value="&lt;i&gt;Rx&lt;/i&gt; = {r1, r2, r3, ...}" style="shape=parallelogram;html=1;strokeWidth=2;perimeter=parallelogramPerimeter;whiteSpace=wrap;rounded=1;arcSize=12;size=0.23;labelBackgroundColor=none;" vertex="1" parent="1">
          <mxGeometry x="-115" y="120" width="160" height="40" as="geometry" />
        </mxCell>
        <mxCell id="rYVZWEPrfZzp95ZC9z8C-149" style="edgeStyle=orthogonalEdgeStyle;rounded=0;orthogonalLoop=1;jettySize=auto;html=1;entryX=0;entryY=0.5;entryDx=0;entryDy=0;labelBackgroundColor=none;fontColor=default;" edge="1" parent="1" source="rYVZWEPrfZzp95ZC9z8C-148" target="rYVZWEPrfZzp95ZC9z8C-142">
          <mxGeometry relative="1" as="geometry" />
        </mxCell>
        <mxCell id="rYVZWEPrfZzp95ZC9z8C-191" value="Yes" style="edgeLabel;html=1;align=center;verticalAlign=middle;resizable=0;points=[];labelBackgroundColor=none;" vertex="1" connectable="0" parent="rYVZWEPrfZzp95ZC9z8C-149">
          <mxGeometry x="-0.4171" y="2" relative="1" as="geometry">
            <mxPoint as="offset" />
          </mxGeometry>
        </mxCell>
        <mxCell id="rYVZWEPrfZzp95ZC9z8C-148" value="x &amp;lt;= R.length" style="rhombus;whiteSpace=wrap;html=1;labelBackgroundColor=none;" vertex="1" parent="1">
          <mxGeometry x="-260" y="20" width="90" height="60" as="geometry" />
        </mxCell>
        <mxCell id="rYVZWEPrfZzp95ZC9z8C-150" value="END" style="strokeWidth=2;html=1;shape=mxgraph.flowchart.terminator;whiteSpace=wrap;labelBackgroundColor=none;" vertex="1" parent="1">
          <mxGeometry x="-250" y="120" width="70" height="40" as="geometry" />
        </mxCell>
        <mxCell id="rYVZWEPrfZzp95ZC9z8C-151" style="edgeStyle=orthogonalEdgeStyle;rounded=0;orthogonalLoop=1;jettySize=auto;html=1;entryX=0.5;entryY=0;entryDx=0;entryDy=0;entryPerimeter=0;labelBackgroundColor=none;fontColor=default;" edge="1" parent="1" source="rYVZWEPrfZzp95ZC9z8C-148" target="rYVZWEPrfZzp95ZC9z8C-150">
          <mxGeometry relative="1" as="geometry" />
        </mxCell>
        <mxCell id="rYVZWEPrfZzp95ZC9z8C-192" value="No" style="edgeLabel;html=1;align=center;verticalAlign=middle;resizable=0;points=[];labelBackgroundColor=none;" vertex="1" connectable="0" parent="rYVZWEPrfZzp95ZC9z8C-151">
          <mxGeometry x="-0.1457" y="-1" relative="1" as="geometry">
            <mxPoint as="offset" />
          </mxGeometry>
        </mxCell>
        <mxCell id="rYVZWEPrfZzp95ZC9z8C-162" style="edgeStyle=orthogonalEdgeStyle;rounded=0;orthogonalLoop=1;jettySize=auto;html=1;labelBackgroundColor=none;fontColor=default;" edge="1" parent="1" source="rYVZWEPrfZzp95ZC9z8C-152" target="rYVZWEPrfZzp95ZC9z8C-161">
          <mxGeometry relative="1" as="geometry" />
        </mxCell>
        <mxCell id="rYVZWEPrfZzp95ZC9z8C-152" value="Tokenize S" style="rounded=1;whiteSpace=wrap;html=1;absoluteArcSize=1;arcSize=14;strokeWidth=2;labelBackgroundColor=none;" vertex="1" parent="1">
          <mxGeometry x="-471" y="240" width="155" height="50" as="geometry" />
        </mxCell>
        <mxCell id="rYVZWEPrfZzp95ZC9z8C-163" style="edgeStyle=orthogonalEdgeStyle;rounded=0;orthogonalLoop=1;jettySize=auto;html=1;entryX=0;entryY=0.5;entryDx=0;entryDy=0;labelBackgroundColor=none;fontColor=default;" edge="1" parent="1" source="rYVZWEPrfZzp95ZC9z8C-161" target="rYVZWEPrfZzp95ZC9z8C-39">
          <mxGeometry relative="1" as="geometry">
            <Array as="points">
              <mxPoint x="-179" y="530" />
            </Array>
          </mxGeometry>
        </mxCell>
        <mxCell id="rYVZWEPrfZzp95ZC9z8C-165" style="edgeStyle=orthogonalEdgeStyle;rounded=0;orthogonalLoop=1;jettySize=auto;html=1;labelBackgroundColor=none;fontColor=default;" edge="1" parent="1" source="rYVZWEPrfZzp95ZC9z8C-161" target="rYVZWEPrfZzp95ZC9z8C-164">
          <mxGeometry relative="1" as="geometry" />
        </mxCell>
        <mxCell id="rYVZWEPrfZzp95ZC9z8C-161" value="S Tokens" style="shape=parallelogram;html=1;strokeWidth=2;perimeter=parallelogramPerimeter;whiteSpace=wrap;rounded=1;arcSize=12;size=0.23;direction=west;labelBackgroundColor=none;" vertex="1" parent="1">
          <mxGeometry x="-476" y="340" width="165" height="40" as="geometry" />
        </mxCell>
        <mxCell id="rYVZWEPrfZzp95ZC9z8C-164" value="Signature Generation S&lt;div&gt;(weighted)&lt;/div&gt;" style="rounded=1;whiteSpace=wrap;html=1;absoluteArcSize=1;arcSize=14;strokeWidth=2;labelBackgroundColor=none;" vertex="1" parent="1">
          <mxGeometry x="-256" y="670" width="155" height="50" as="geometry" />
        </mxCell>
        <mxCell id="rYVZWEPrfZzp95ZC9z8C-166" style="edgeStyle=orthogonalEdgeStyle;rounded=0;orthogonalLoop=1;jettySize=auto;html=1;entryX=0;entryY=0.5;entryDx=0;entryDy=0;entryPerimeter=0;labelBackgroundColor=none;fontColor=default;" edge="1" parent="1" source="rYVZWEPrfZzp95ZC9z8C-164" target="rYVZWEPrfZzp95ZC9z8C-63">
          <mxGeometry relative="1" as="geometry" />
        </mxCell>
        <mxCell id="rYVZWEPrfZzp95ZC9z8C-171" style="edgeStyle=orthogonalEdgeStyle;rounded=0;orthogonalLoop=1;jettySize=auto;html=1;labelBackgroundColor=none;fontColor=default;" edge="1" parent="1" source="rYVZWEPrfZzp95ZC9z8C-169" target="rYVZWEPrfZzp95ZC9z8C-67">
          <mxGeometry relative="1" as="geometry" />
        </mxCell>
        <mxCell id="rYVZWEPrfZzp95ZC9z8C-169" value="R Signature" style="shape=parallelogram;html=1;strokeWidth=2;perimeter=parallelogramPerimeter;whiteSpace=wrap;rounded=1;arcSize=12;size=0.23;direction=west;labelBackgroundColor=none;" vertex="1" parent="1">
          <mxGeometry x="550" y="340" width="165" height="40" as="geometry" />
        </mxCell>
        <mxCell id="rYVZWEPrfZzp95ZC9z8C-173" style="edgeStyle=orthogonalEdgeStyle;rounded=0;orthogonalLoop=1;jettySize=auto;html=1;entryX=0.5;entryY=1;entryDx=0;entryDy=0;labelBackgroundColor=none;fontColor=default;" edge="1" parent="1" source="rYVZWEPrfZzp95ZC9z8C-172" target="rYVZWEPrfZzp95ZC9z8C-47">
          <mxGeometry relative="1" as="geometry" />
        </mxCell>
        <mxCell id="rYVZWEPrfZzp95ZC9z8C-172" value="relatedness&amp;nbsp;&lt;div&gt;threshold &lt;span class=&quot;katex&quot;&gt;&lt;span style=&quot;height: 0.6944em;&quot; class=&quot;strut&quot;&gt;&lt;/span&gt;&lt;span style=&quot;margin-right: 0.0379em;&quot; class=&quot;mord mathnormal&quot;&gt;δ&lt;/span&gt;&lt;/span&gt;&lt;/div&gt;" style="shape=parallelogram;html=1;strokeWidth=2;perimeter=parallelogramPerimeter;whiteSpace=wrap;rounded=1;arcSize=12;size=0.23;labelBackgroundColor=none;" vertex="1" parent="1">
          <mxGeometry x="257.5" y="404" width="200" height="40" as="geometry" />
        </mxCell>
        <mxCell id="rYVZWEPrfZzp95ZC9z8C-187" style="edgeStyle=orthogonalEdgeStyle;rounded=0;orthogonalLoop=1;jettySize=auto;html=1;entryX=1;entryY=0.5;entryDx=0;entryDy=0;labelBackgroundColor=none;fontColor=default;" edge="1" parent="1" source="rYVZWEPrfZzp95ZC9z8C-182" target="rYVZWEPrfZzp95ZC9z8C-186">
          <mxGeometry relative="1" as="geometry" />
        </mxCell>
        <mxCell id="rYVZWEPrfZzp95ZC9z8C-190" value="Yes" style="edgeLabel;html=1;align=center;verticalAlign=middle;resizable=0;points=[];labelBackgroundColor=none;" vertex="1" connectable="0" parent="rYVZWEPrfZzp95ZC9z8C-187">
          <mxGeometry x="-0.184" y="-1" relative="1" as="geometry">
            <mxPoint as="offset" />
          </mxGeometry>
        </mxCell>
        <mxCell id="rYVZWEPrfZzp95ZC9z8C-182" value="DISCOVERY&lt;div&gt;Mode&lt;/div&gt;" style="strokeWidth=2;html=1;shape=mxgraph.flowchart.decision;whiteSpace=wrap;labelBackgroundColor=none;" vertex="1" parent="1">
          <mxGeometry x="945" y="1270" width="110" height="80" as="geometry" />
        </mxCell>
        <mxCell id="rYVZWEPrfZzp95ZC9z8C-183" style="edgeStyle=orthogonalEdgeStyle;rounded=0;orthogonalLoop=1;jettySize=auto;html=1;entryX=0.5;entryY=0;entryDx=0;entryDy=0;entryPerimeter=0;labelBackgroundColor=none;fontColor=default;" edge="1" parent="1" source="rYVZWEPrfZzp95ZC9z8C-182" target="rYVZWEPrfZzp95ZC9z8C-128">
          <mxGeometry relative="1" as="geometry" />
        </mxCell>
        <mxCell id="rYVZWEPrfZzp95ZC9z8C-184" value="No" style="edgeLabel;html=1;align=center;verticalAlign=middle;resizable=0;points=[];labelBackgroundColor=none;" vertex="1" connectable="0" parent="rYVZWEPrfZzp95ZC9z8C-183">
          <mxGeometry x="-0.1257" relative="1" as="geometry">
            <mxPoint as="offset" />
          </mxGeometry>
        </mxCell>
        <mxCell id="rYVZWEPrfZzp95ZC9z8C-188" style="edgeStyle=orthogonalEdgeStyle;rounded=0;orthogonalLoop=1;jettySize=auto;html=1;exitX=0;exitY=0.5;exitDx=0;exitDy=0;entryX=0;entryY=0.5;entryDx=0;entryDy=0;labelBackgroundColor=none;fontColor=default;" edge="1" parent="1" source="rYVZWEPrfZzp95ZC9z8C-186" target="rYVZWEPrfZzp95ZC9z8C-148">
          <mxGeometry relative="1" as="geometry">
            <mxPoint x="-760" y="50" as="targetPoint" />
            <Array as="points">
              <mxPoint x="-759" y="1310" />
              <mxPoint x="-759" y="50" />
            </Array>
          </mxGeometry>
        </mxCell>
        <mxCell id="rYVZWEPrfZzp95ZC9z8C-186" value="Increment x" style="rounded=1;whiteSpace=wrap;html=1;absoluteArcSize=1;arcSize=14;strokeWidth=2;labelBackgroundColor=none;" vertex="1" parent="1">
          <mxGeometry x="715" y="1285" width="137.5" height="50" as="geometry" />
        </mxCell>
      </root>
    </mxGraphModel>
  </diagram>
</mxfile>
